<svg fill="#61686b" version="1.0" xmlns="http://www.w3.org/2000/svg"
 width="512.000000pt" height="512.000000pt" viewBox="0 0 512.000000 512.000000"
 preserveAspectRatio="xMidYMid meet">

<g transform="translate(0.000000,512.000000) scale(0.100000,-0.100000)"
fill="#61686b" stroke="none">
<path d="M2380 5114 c-19 -2 -78 -9 -130 -14 -330 -36 -695 -160 -990 -336
-375 -224 -680 -529 -904 -904 -175 -292 -291 -632 -338 -990 -16 -123 -16
-497 0 -620 82 -623 356 -1150 820 -1581 256 -239 575 -425 922 -539 274 -91
491 -124 800 -124 228 0 329 9 530 50 689 141 1304 583 1674 1204 175 292 291
632 338 990 16 123 16 497 0 620 -47 358 -163 698 -338 990 -224 375 -529 680
-904 904 -289 173 -634 291 -980 336 -88 12 -438 21 -500 14z m510 -319 c429
-66 819 -247 1148 -530 162 -140 332 -338 441 -515 l31 -50 -273 0 c-297 0
-446 -13 -621 -55 -729 -173 -1309 -758 -1481 -1492 -10 -40 -20 -73 -24 -72
-5 0 -180 204 -440 512 -209 249 -328 484 -390 768 -42 196 -44 449 -6 658 22
118 87 308 143 422 l47 94 124 62 c206 102 457 175 715 208 140 18 440 13 586
-10z m-1909 -722 c-110 -561 43 -1164 407 -1608 206 -250 744 -874 769 -890
38 -25 116 -24 152 2 55 41 69 75 76 191 28 451 192 826 493 1129 192 193 405
326 657 412 233 78 345 91 787 91 l336 0 30 -82 c263 -730 124 -1555 -367
-2171 -376 -471 -952 -782 -1556 -837 -727 -67 -1462 235 -1927 790 -521 621
-674 1454 -408 2215 74 211 220 472 367 655 76 95 194 222 200 216 3 -3 -4
-53 -16 -113z"/>
<path d="M2535 4739 c-429 -53 -665 -276 -544 -517 36 -72 93 -126 187 -175
139 -73 318 -109 542 -108 352 1 630 116 711 295 28 61 25 157 -5 223 -60 127
-233 227 -466 269 -109 19 -322 26 -425 13z m405 -314 c79 -18 200 -68 200
-82 0 -23 -131 -73 -240 -93 -92 -17 -320 -15 -406 4 -81 17 -163 46 -201 71
l-25 17 28 19 c39 26 173 68 254 79 94 13 303 5 390 -15z"/>
</g>
</svg>
